<svg height="512pt" viewBox="0 -26 512.00013 512" width="512pt" xmlns="http://www.w3.org/2000/svg"><g fill-rule="evenodd"><path d="m10.003906 252.386719h126.847656v197.988281h-126.847656zm0 0" fill="#ff8f8e"/><path d="m136.851562 10.003906h126.84375v440.371094h-126.84375zm0 0" fill="#ffdda0"/><path d="m263.695312 134.949219h126.84375v315.425781h-126.84375zm0 0" fill="#c2ed91"/><path d="m443.828125 350.941406 58.164063 58.164063m-116.328126-198.585938c45.410157 0 82.257813 36.847657 82.257813 82.257813 0 22.734375-9.210937 43.28125-24.09375 58.164062-14.910156 14.882813-35.457031 24.09375-58.164063 24.09375-45.4375 0-82.257812-36.820312-82.257812-82.257812 0-45.410156 36.824219-82.257813 82.257812-82.257813zm0 0" fill="#67e4dc"/><path d="m509.070312 402.03125-51.46875-51.464844c13.171876-16.332031 20.328126-36.511718 20.328126-57.789062 0-45.808594-33.558594-83.917969-77.382813-91.054688v-66.769531c0-5.527344-4.480469-10.007813-10.003906-10.007813h-116.839844v-114.941406c0-5.523437-4.480469-10.003906-10.007813-10.003906h-126.84375c-5.527343 0-10.007812 4.480469-10.007812 10.003906v232.375h-116.839844c-5.523437 0-10.003906 4.480469-10.003906 10.007813v197.988281c0 5.527344 4.480469 10.007812 10.003906 10.007812h380.539063c5.523437 0 10.003906-4.480468 10.003906-10.007812v-66.535156c15.710937-2.539063 30.417969-9.074219 42.902344-19.128906l51.46875 51.472656c1.953125 1.953125 4.515625 2.929687 7.078125 2.929687 2.558594 0 5.121094-.976562 7.074218-2.929687 3.90625-3.910156 3.90625-10.246094 0-14.152344zm-489.058593-139.640625h106.832031v177.980469h-106.832031zm126.84375-10.003906v-232.375h106.835937v420.359375h-106.835937zm289.90625 91.472656c-13.675781 13.652344-31.824219 21.167969-51.097657 21.167969-24.59375 0-47.265624-12.332032-60.652343-32.988282-3.003907-4.640624-9.199219-5.964843-13.835938-2.957031-4.636719 3.003907-5.960937 9.199219-2.957031 13.835938 16.152344 24.933593 42.910156 40.359375 72.316406 41.972656v55.480469h-106.832031v-295.414063h106.832031v55.707031c-29.386718 1.613282-56.140625 17.039063-72.3125 41.96875-3.007812 4.632813-1.6875 10.832032 2.949219 13.835938 4.636719 3.007812 10.832031 1.6875 13.839844-2.945312 13.402343-20.664063 36.074219-33 60.652343-33 39.839844 0 72.253907 32.414062 72.253907 72.253906 0 19.296875-7.515625 37.441406-21.15625 51.082031zm0 0"/><path d="m303.40625 281.128906c-6.433594 0-11.648438 5.242188-11.648438 11.648438 0 6.433594 5.214844 11.648437 11.648438 11.648437 6.40625 0 11.652344-5.214843 11.652344-11.648437 0-6.40625-5.246094-11.648438-11.652344-11.648438zm0 0"/></g></svg>